<?xml version="1.0" encoding="iso-8859-1"?>
<!-- Uploaded to: SVG Repo, www.svgrepo.com, Generator: SVG Repo Mixer Tools -->
<!DOCTYPE svg PUBLIC "-//W3C//DTD SVG 1.1//EN" "http://www.w3.org/Graphics/SVG/1.1/DTD/svg11.dtd">
<svg fill="#000000" version="1.1" id="Capa_1" xmlns="http://www.w3.org/2000/svg" xmlns:xlink="http://www.w3.org/1999/xlink" 
	 width="800px" height="800px" viewBox="0 0 99.763 99.764"
	 xml:space="preserve">
<g>
	<g>
		<path d="M78.368,48.895l14.244-24.69H81.606l-8.903,15.917H60.24l6.475-10.882L49.882,0L33.048,29.24l6.476,10.882H27.059
			l-8.902-15.918H7.152l14.242,24.69L78.368,48.895L78.368,48.895z M49.882,18.553l6.15,10.688l-6.15,10.338l-6.15-10.339
			L49.882,18.553z"/>
		<path d="M21.394,50.869L7.152,75.56h11.005l8.902-15.919h12.465l-6.476,10.883l16.834,29.24l16.833-29.24L60.24,59.641h12.463
			l8.902,15.919h11.007l-14.244-24.69H21.394L21.394,50.869z M49.882,81.211l-6.15-10.688l6.15-10.339l6.15,10.339L49.882,81.211z"
			/>
	</g>
</g>
</svg>